<mxfile host="app.diagrams.net" modified="2021-06-20T07:25:42.644Z" agent="5.0 (Windows)" etag="DhzEx_iHycjgH_sr-Kl5" version="14.8.0" type="github">
  <diagram id="2XP58rAFBc3MLYr3Nnb9" name="Page-1">
    <mxGraphModel dx="1422" dy="780" grid="1" gridSize="10" guides="1" tooltips="1" connect="1" arrows="1" fold="1" page="1" pageScale="1" pageWidth="827" pageHeight="1169" math="0" shadow="0">
      <root>
        <mxCell id="0" />
        <mxCell id="1" parent="0" />
        <mxCell id="0eTv8yT3EtTSWalVSXlZ-60" value="" style="group" vertex="1" connectable="0" parent="1">
          <mxGeometry x="40" y="40" width="680" height="80" as="geometry" />
        </mxCell>
        <mxCell id="0eTv8yT3EtTSWalVSXlZ-1" value="" style="rounded=0;whiteSpace=wrap;html=1;comic=0;" vertex="1" parent="0eTv8yT3EtTSWalVSXlZ-60">
          <mxGeometry x="600" y="40" width="80" height="40" as="geometry" />
        </mxCell>
        <mxCell id="0eTv8yT3EtTSWalVSXlZ-3" value="" style="endArrow=none;html=1;exitX=0.5;exitY=1;exitDx=0;exitDy=0;entryX=0.5;entryY=0;entryDx=0;entryDy=0;comic=0;" edge="1" parent="0eTv8yT3EtTSWalVSXlZ-60" source="0eTv8yT3EtTSWalVSXlZ-1" target="0eTv8yT3EtTSWalVSXlZ-1">
          <mxGeometry width="50" height="50" relative="1" as="geometry">
            <mxPoint x="10" y="50" as="sourcePoint" />
            <mxPoint x="60" as="targetPoint" />
          </mxGeometry>
        </mxCell>
        <mxCell id="0eTv8yT3EtTSWalVSXlZ-28" value="" style="rounded=0;whiteSpace=wrap;html=1;comic=0;" vertex="1" parent="0eTv8yT3EtTSWalVSXlZ-60">
          <mxGeometry x="480" y="40" width="80" height="40" as="geometry" />
        </mxCell>
        <mxCell id="0eTv8yT3EtTSWalVSXlZ-29" value="" style="endArrow=none;html=1;exitX=0.5;exitY=1;exitDx=0;exitDy=0;entryX=0.5;entryY=0;entryDx=0;entryDy=0;comic=0;" edge="1" parent="0eTv8yT3EtTSWalVSXlZ-60" source="0eTv8yT3EtTSWalVSXlZ-28" target="0eTv8yT3EtTSWalVSXlZ-28">
          <mxGeometry width="50" height="50" relative="1" as="geometry">
            <mxPoint x="20" y="60" as="sourcePoint" />
            <mxPoint x="70" y="10" as="targetPoint" />
          </mxGeometry>
        </mxCell>
        <mxCell id="0eTv8yT3EtTSWalVSXlZ-30" value="" style="rounded=0;whiteSpace=wrap;html=1;comic=0;" vertex="1" parent="0eTv8yT3EtTSWalVSXlZ-60">
          <mxGeometry x="360" y="40" width="80" height="40" as="geometry" />
        </mxCell>
        <mxCell id="0eTv8yT3EtTSWalVSXlZ-31" value="" style="endArrow=none;html=1;exitX=0.5;exitY=1;exitDx=0;exitDy=0;entryX=0.5;entryY=0;entryDx=0;entryDy=0;comic=0;" edge="1" parent="0eTv8yT3EtTSWalVSXlZ-60" source="0eTv8yT3EtTSWalVSXlZ-30" target="0eTv8yT3EtTSWalVSXlZ-30">
          <mxGeometry width="50" height="50" relative="1" as="geometry">
            <mxPoint x="30" y="70" as="sourcePoint" />
            <mxPoint x="80" y="20" as="targetPoint" />
          </mxGeometry>
        </mxCell>
        <mxCell id="0eTv8yT3EtTSWalVSXlZ-32" value="" style="rounded=0;whiteSpace=wrap;html=1;comic=0;" vertex="1" parent="0eTv8yT3EtTSWalVSXlZ-60">
          <mxGeometry y="40" width="80" height="40" as="geometry" />
        </mxCell>
        <mxCell id="0eTv8yT3EtTSWalVSXlZ-33" value="" style="endArrow=none;html=1;exitX=0.5;exitY=1;exitDx=0;exitDy=0;entryX=0.5;entryY=0;entryDx=0;entryDy=0;comic=0;" edge="1" parent="0eTv8yT3EtTSWalVSXlZ-60" source="0eTv8yT3EtTSWalVSXlZ-32" target="0eTv8yT3EtTSWalVSXlZ-32">
          <mxGeometry width="50" height="50" relative="1" as="geometry">
            <mxPoint x="40" y="80" as="sourcePoint" />
            <mxPoint x="90" y="30" as="targetPoint" />
          </mxGeometry>
        </mxCell>
        <mxCell id="0eTv8yT3EtTSWalVSXlZ-34" value="" style="rounded=0;whiteSpace=wrap;html=1;comic=0;" vertex="1" parent="0eTv8yT3EtTSWalVSXlZ-60">
          <mxGeometry x="240" y="40" width="80" height="40" as="geometry" />
        </mxCell>
        <mxCell id="0eTv8yT3EtTSWalVSXlZ-35" value="" style="endArrow=none;html=1;exitX=0.5;exitY=1;exitDx=0;exitDy=0;entryX=0.5;entryY=0;entryDx=0;entryDy=0;comic=0;" edge="1" parent="0eTv8yT3EtTSWalVSXlZ-60" source="0eTv8yT3EtTSWalVSXlZ-34" target="0eTv8yT3EtTSWalVSXlZ-34">
          <mxGeometry width="50" height="50" relative="1" as="geometry">
            <mxPoint x="50" y="90" as="sourcePoint" />
            <mxPoint x="100" y="40" as="targetPoint" />
          </mxGeometry>
        </mxCell>
        <mxCell id="0eTv8yT3EtTSWalVSXlZ-36" value="" style="rounded=0;whiteSpace=wrap;html=1;comic=0;" vertex="1" parent="0eTv8yT3EtTSWalVSXlZ-60">
          <mxGeometry x="120" y="40" width="80" height="40" as="geometry" />
        </mxCell>
        <mxCell id="0eTv8yT3EtTSWalVSXlZ-37" value="" style="endArrow=none;html=1;exitX=0.5;exitY=1;exitDx=0;exitDy=0;entryX=0.5;entryY=0;entryDx=0;entryDy=0;comic=0;" edge="1" parent="0eTv8yT3EtTSWalVSXlZ-60" source="0eTv8yT3EtTSWalVSXlZ-36" target="0eTv8yT3EtTSWalVSXlZ-36">
          <mxGeometry width="50" height="50" relative="1" as="geometry">
            <mxPoint x="60" y="100" as="sourcePoint" />
            <mxPoint x="110" y="50" as="targetPoint" />
          </mxGeometry>
        </mxCell>
        <mxCell id="0eTv8yT3EtTSWalVSXlZ-40" value="" style="endArrow=classic;html=1;comic=0;" edge="1" parent="0eTv8yT3EtTSWalVSXlZ-60">
          <mxGeometry width="50" height="50" relative="1" as="geometry">
            <mxPoint x="60" y="60" as="sourcePoint" />
            <mxPoint x="120" y="60" as="targetPoint" />
          </mxGeometry>
        </mxCell>
        <mxCell id="0eTv8yT3EtTSWalVSXlZ-48" value="" style="endArrow=classic;html=1;comic=0;" edge="1" parent="0eTv8yT3EtTSWalVSXlZ-60">
          <mxGeometry width="50" height="50" relative="1" as="geometry">
            <mxPoint x="180" y="59.5" as="sourcePoint" />
            <mxPoint x="240" y="59.5" as="targetPoint" />
          </mxGeometry>
        </mxCell>
        <mxCell id="0eTv8yT3EtTSWalVSXlZ-49" value="" style="endArrow=classic;html=1;comic=0;" edge="1" parent="0eTv8yT3EtTSWalVSXlZ-60">
          <mxGeometry width="50" height="50" relative="1" as="geometry">
            <mxPoint x="300" y="59.5" as="sourcePoint" />
            <mxPoint x="360" y="59.5" as="targetPoint" />
          </mxGeometry>
        </mxCell>
        <mxCell id="0eTv8yT3EtTSWalVSXlZ-50" value="" style="endArrow=classic;html=1;comic=0;" edge="1" parent="0eTv8yT3EtTSWalVSXlZ-60">
          <mxGeometry width="50" height="50" relative="1" as="geometry">
            <mxPoint x="420" y="59.5" as="sourcePoint" />
            <mxPoint x="480" y="59.5" as="targetPoint" />
          </mxGeometry>
        </mxCell>
        <mxCell id="0eTv8yT3EtTSWalVSXlZ-51" value="" style="endArrow=classic;html=1;comic=0;" edge="1" parent="0eTv8yT3EtTSWalVSXlZ-60">
          <mxGeometry width="50" height="50" relative="1" as="geometry">
            <mxPoint x="540" y="59.5" as="sourcePoint" />
            <mxPoint x="600" y="59.5" as="targetPoint" />
          </mxGeometry>
        </mxCell>
        <mxCell id="0eTv8yT3EtTSWalVSXlZ-52" value="" style="endArrow=classic;html=1;entryX=0.25;entryY=0;entryDx=0;entryDy=0;comic=0;" edge="1" parent="0eTv8yT3EtTSWalVSXlZ-60" target="0eTv8yT3EtTSWalVSXlZ-32">
          <mxGeometry width="50" height="50" relative="1" as="geometry">
            <mxPoint x="20" as="sourcePoint" />
            <mxPoint x="400" y="240" as="targetPoint" />
          </mxGeometry>
        </mxCell>
        <mxCell id="0eTv8yT3EtTSWalVSXlZ-53" value="" style="endArrow=classic;html=1;entryX=0.25;entryY=0;entryDx=0;entryDy=0;comic=0;" edge="1" parent="0eTv8yT3EtTSWalVSXlZ-60">
          <mxGeometry width="50" height="50" relative="1" as="geometry">
            <mxPoint x="20" as="sourcePoint" />
            <mxPoint x="20" y="40" as="targetPoint" />
          </mxGeometry>
        </mxCell>
        <mxCell id="0eTv8yT3EtTSWalVSXlZ-54" value="" style="endArrow=classic;html=1;entryX=0.25;entryY=0;entryDx=0;entryDy=0;comic=0;" edge="1" parent="0eTv8yT3EtTSWalVSXlZ-60">
          <mxGeometry width="50" height="50" relative="1" as="geometry">
            <mxPoint x="140" as="sourcePoint" />
            <mxPoint x="140" y="40" as="targetPoint" />
          </mxGeometry>
        </mxCell>
        <mxCell id="0eTv8yT3EtTSWalVSXlZ-55" value="" style="endArrow=classic;html=1;entryX=0.25;entryY=0;entryDx=0;entryDy=0;comic=0;" edge="1" parent="0eTv8yT3EtTSWalVSXlZ-60">
          <mxGeometry width="50" height="50" relative="1" as="geometry">
            <mxPoint x="260" as="sourcePoint" />
            <mxPoint x="260" y="40" as="targetPoint" />
          </mxGeometry>
        </mxCell>
        <mxCell id="0eTv8yT3EtTSWalVSXlZ-56" value="" style="endArrow=classic;html=1;entryX=0.25;entryY=0;entryDx=0;entryDy=0;comic=0;" edge="1" parent="0eTv8yT3EtTSWalVSXlZ-60">
          <mxGeometry width="50" height="50" relative="1" as="geometry">
            <mxPoint x="380" as="sourcePoint" />
            <mxPoint x="380" y="40" as="targetPoint" />
          </mxGeometry>
        </mxCell>
        <mxCell id="0eTv8yT3EtTSWalVSXlZ-58" value="" style="endArrow=classic;html=1;entryX=0.25;entryY=0;entryDx=0;entryDy=0;comic=0;" edge="1" parent="0eTv8yT3EtTSWalVSXlZ-60" target="0eTv8yT3EtTSWalVSXlZ-1">
          <mxGeometry width="50" height="50" relative="1" as="geometry">
            <mxPoint x="620" as="sourcePoint" />
            <mxPoint x="70" y="90" as="targetPoint" />
          </mxGeometry>
        </mxCell>
        <mxCell id="0eTv8yT3EtTSWalVSXlZ-59" value="" style="endArrow=classic;html=1;entryX=0.25;entryY=0;entryDx=0;entryDy=0;comic=0;" edge="1" parent="0eTv8yT3EtTSWalVSXlZ-60" target="0eTv8yT3EtTSWalVSXlZ-28">
          <mxGeometry width="50" height="50" relative="1" as="geometry">
            <mxPoint x="500" as="sourcePoint" />
            <mxPoint x="80" y="100" as="targetPoint" />
          </mxGeometry>
        </mxCell>
        <mxCell id="0eTv8yT3EtTSWalVSXlZ-61" value="" style="group" vertex="1" connectable="0" parent="1">
          <mxGeometry x="40" y="520" width="680" height="80" as="geometry" />
        </mxCell>
        <mxCell id="0eTv8yT3EtTSWalVSXlZ-62" value="" style="rounded=0;whiteSpace=wrap;html=1;comic=0;" vertex="1" parent="0eTv8yT3EtTSWalVSXlZ-61">
          <mxGeometry x="600" y="40" width="80" height="40" as="geometry" />
        </mxCell>
        <mxCell id="0eTv8yT3EtTSWalVSXlZ-63" value="" style="endArrow=none;html=1;exitX=0.5;exitY=1;exitDx=0;exitDy=0;entryX=0.5;entryY=0;entryDx=0;entryDy=0;comic=0;" edge="1" parent="0eTv8yT3EtTSWalVSXlZ-61" source="0eTv8yT3EtTSWalVSXlZ-62" target="0eTv8yT3EtTSWalVSXlZ-62">
          <mxGeometry width="50" height="50" relative="1" as="geometry">
            <mxPoint x="10" y="50" as="sourcePoint" />
            <mxPoint x="60" as="targetPoint" />
          </mxGeometry>
        </mxCell>
        <mxCell id="0eTv8yT3EtTSWalVSXlZ-64" value="" style="rounded=0;whiteSpace=wrap;html=1;comic=0;" vertex="1" parent="0eTv8yT3EtTSWalVSXlZ-61">
          <mxGeometry x="480" y="40" width="80" height="40" as="geometry" />
        </mxCell>
        <mxCell id="0eTv8yT3EtTSWalVSXlZ-65" value="" style="endArrow=none;html=1;exitX=0.5;exitY=1;exitDx=0;exitDy=0;entryX=0.5;entryY=0;entryDx=0;entryDy=0;comic=0;" edge="1" parent="0eTv8yT3EtTSWalVSXlZ-61" source="0eTv8yT3EtTSWalVSXlZ-64" target="0eTv8yT3EtTSWalVSXlZ-64">
          <mxGeometry width="50" height="50" relative="1" as="geometry">
            <mxPoint x="20" y="60" as="sourcePoint" />
            <mxPoint x="70" y="10" as="targetPoint" />
          </mxGeometry>
        </mxCell>
        <mxCell id="0eTv8yT3EtTSWalVSXlZ-66" value="" style="rounded=0;whiteSpace=wrap;html=1;comic=0;" vertex="1" parent="0eTv8yT3EtTSWalVSXlZ-61">
          <mxGeometry x="360" y="40" width="80" height="40" as="geometry" />
        </mxCell>
        <mxCell id="0eTv8yT3EtTSWalVSXlZ-67" value="" style="endArrow=none;html=1;exitX=0.5;exitY=1;exitDx=0;exitDy=0;entryX=0.5;entryY=0;entryDx=0;entryDy=0;comic=0;" edge="1" parent="0eTv8yT3EtTSWalVSXlZ-61" source="0eTv8yT3EtTSWalVSXlZ-66" target="0eTv8yT3EtTSWalVSXlZ-66">
          <mxGeometry width="50" height="50" relative="1" as="geometry">
            <mxPoint x="30" y="70" as="sourcePoint" />
            <mxPoint x="80" y="20" as="targetPoint" />
          </mxGeometry>
        </mxCell>
        <mxCell id="0eTv8yT3EtTSWalVSXlZ-68" value="" style="rounded=0;whiteSpace=wrap;html=1;comic=0;" vertex="1" parent="0eTv8yT3EtTSWalVSXlZ-61">
          <mxGeometry y="40" width="80" height="40" as="geometry" />
        </mxCell>
        <mxCell id="0eTv8yT3EtTSWalVSXlZ-69" value="" style="endArrow=none;html=1;exitX=0.5;exitY=1;exitDx=0;exitDy=0;entryX=0.5;entryY=0;entryDx=0;entryDy=0;comic=0;" edge="1" parent="0eTv8yT3EtTSWalVSXlZ-61" source="0eTv8yT3EtTSWalVSXlZ-68" target="0eTv8yT3EtTSWalVSXlZ-68">
          <mxGeometry width="50" height="50" relative="1" as="geometry">
            <mxPoint x="40" y="80" as="sourcePoint" />
            <mxPoint x="90" y="30" as="targetPoint" />
          </mxGeometry>
        </mxCell>
        <mxCell id="0eTv8yT3EtTSWalVSXlZ-70" value="" style="rounded=0;whiteSpace=wrap;html=1;comic=0;" vertex="1" parent="0eTv8yT3EtTSWalVSXlZ-61">
          <mxGeometry x="240" y="40" width="80" height="40" as="geometry" />
        </mxCell>
        <mxCell id="0eTv8yT3EtTSWalVSXlZ-71" value="" style="endArrow=none;html=1;exitX=0.5;exitY=1;exitDx=0;exitDy=0;entryX=0.5;entryY=0;entryDx=0;entryDy=0;comic=0;" edge="1" parent="0eTv8yT3EtTSWalVSXlZ-61" source="0eTv8yT3EtTSWalVSXlZ-70" target="0eTv8yT3EtTSWalVSXlZ-70">
          <mxGeometry width="50" height="50" relative="1" as="geometry">
            <mxPoint x="50" y="90" as="sourcePoint" />
            <mxPoint x="100" y="40" as="targetPoint" />
          </mxGeometry>
        </mxCell>
        <mxCell id="0eTv8yT3EtTSWalVSXlZ-72" value="" style="rounded=0;whiteSpace=wrap;html=1;comic=0;" vertex="1" parent="0eTv8yT3EtTSWalVSXlZ-61">
          <mxGeometry x="120" y="40" width="80" height="40" as="geometry" />
        </mxCell>
        <mxCell id="0eTv8yT3EtTSWalVSXlZ-73" value="" style="endArrow=none;html=1;exitX=0.5;exitY=1;exitDx=0;exitDy=0;entryX=0.5;entryY=0;entryDx=0;entryDy=0;comic=0;" edge="1" parent="0eTv8yT3EtTSWalVSXlZ-61" source="0eTv8yT3EtTSWalVSXlZ-72" target="0eTv8yT3EtTSWalVSXlZ-72">
          <mxGeometry width="50" height="50" relative="1" as="geometry">
            <mxPoint x="60" y="100" as="sourcePoint" />
            <mxPoint x="110" y="50" as="targetPoint" />
          </mxGeometry>
        </mxCell>
        <mxCell id="0eTv8yT3EtTSWalVSXlZ-74" value="" style="endArrow=classic;html=1;comic=0;" edge="1" parent="0eTv8yT3EtTSWalVSXlZ-61">
          <mxGeometry width="50" height="50" relative="1" as="geometry">
            <mxPoint x="60" y="60" as="sourcePoint" />
            <mxPoint x="120" y="60" as="targetPoint" />
          </mxGeometry>
        </mxCell>
        <mxCell id="0eTv8yT3EtTSWalVSXlZ-75" value="" style="endArrow=classic;html=1;comic=0;" edge="1" parent="0eTv8yT3EtTSWalVSXlZ-61">
          <mxGeometry width="50" height="50" relative="1" as="geometry">
            <mxPoint x="180" y="59.5" as="sourcePoint" />
            <mxPoint x="240" y="59.5" as="targetPoint" />
          </mxGeometry>
        </mxCell>
        <mxCell id="0eTv8yT3EtTSWalVSXlZ-76" value="" style="endArrow=classic;html=1;comic=0;" edge="1" parent="0eTv8yT3EtTSWalVSXlZ-61">
          <mxGeometry width="50" height="50" relative="1" as="geometry">
            <mxPoint x="300" y="59.5" as="sourcePoint" />
            <mxPoint x="360" y="59.5" as="targetPoint" />
          </mxGeometry>
        </mxCell>
        <mxCell id="0eTv8yT3EtTSWalVSXlZ-77" value="" style="endArrow=classic;html=1;comic=0;" edge="1" parent="0eTv8yT3EtTSWalVSXlZ-61">
          <mxGeometry width="50" height="50" relative="1" as="geometry">
            <mxPoint x="420" y="59.5" as="sourcePoint" />
            <mxPoint x="480" y="59.5" as="targetPoint" />
          </mxGeometry>
        </mxCell>
        <mxCell id="0eTv8yT3EtTSWalVSXlZ-78" value="" style="endArrow=classic;html=1;comic=0;" edge="1" parent="0eTv8yT3EtTSWalVSXlZ-61">
          <mxGeometry width="50" height="50" relative="1" as="geometry">
            <mxPoint x="540" y="59.5" as="sourcePoint" />
            <mxPoint x="600" y="59.5" as="targetPoint" />
          </mxGeometry>
        </mxCell>
        <mxCell id="0eTv8yT3EtTSWalVSXlZ-79" value="" style="endArrow=classic;html=1;entryX=0.25;entryY=0;entryDx=0;entryDy=0;comic=0;" edge="1" parent="0eTv8yT3EtTSWalVSXlZ-61" target="0eTv8yT3EtTSWalVSXlZ-68">
          <mxGeometry width="50" height="50" relative="1" as="geometry">
            <mxPoint x="20" as="sourcePoint" />
            <mxPoint x="400" y="240" as="targetPoint" />
          </mxGeometry>
        </mxCell>
        <mxCell id="0eTv8yT3EtTSWalVSXlZ-80" value="" style="endArrow=classic;html=1;entryX=0.25;entryY=0;entryDx=0;entryDy=0;comic=0;" edge="1" parent="0eTv8yT3EtTSWalVSXlZ-61">
          <mxGeometry width="50" height="50" relative="1" as="geometry">
            <mxPoint x="20" as="sourcePoint" />
            <mxPoint x="20" y="40" as="targetPoint" />
          </mxGeometry>
        </mxCell>
        <mxCell id="0eTv8yT3EtTSWalVSXlZ-81" value="" style="endArrow=classic;html=1;entryX=0.25;entryY=0;entryDx=0;entryDy=0;comic=0;" edge="1" parent="0eTv8yT3EtTSWalVSXlZ-61">
          <mxGeometry width="50" height="50" relative="1" as="geometry">
            <mxPoint x="140" as="sourcePoint" />
            <mxPoint x="140" y="40" as="targetPoint" />
          </mxGeometry>
        </mxCell>
        <mxCell id="0eTv8yT3EtTSWalVSXlZ-82" value="" style="endArrow=classic;html=1;entryX=0.25;entryY=0;entryDx=0;entryDy=0;comic=0;" edge="1" parent="0eTv8yT3EtTSWalVSXlZ-61">
          <mxGeometry width="50" height="50" relative="1" as="geometry">
            <mxPoint x="260" as="sourcePoint" />
            <mxPoint x="260" y="40" as="targetPoint" />
          </mxGeometry>
        </mxCell>
        <mxCell id="0eTv8yT3EtTSWalVSXlZ-83" value="" style="endArrow=classic;html=1;entryX=0.25;entryY=0;entryDx=0;entryDy=0;comic=0;" edge="1" parent="0eTv8yT3EtTSWalVSXlZ-61">
          <mxGeometry width="50" height="50" relative="1" as="geometry">
            <mxPoint x="380" as="sourcePoint" />
            <mxPoint x="380" y="40" as="targetPoint" />
          </mxGeometry>
        </mxCell>
        <mxCell id="0eTv8yT3EtTSWalVSXlZ-84" value="" style="endArrow=classic;html=1;entryX=0.25;entryY=0;entryDx=0;entryDy=0;comic=0;" edge="1" parent="0eTv8yT3EtTSWalVSXlZ-61" target="0eTv8yT3EtTSWalVSXlZ-62">
          <mxGeometry width="50" height="50" relative="1" as="geometry">
            <mxPoint x="620" as="sourcePoint" />
            <mxPoint x="70" y="90" as="targetPoint" />
          </mxGeometry>
        </mxCell>
        <mxCell id="0eTv8yT3EtTSWalVSXlZ-85" value="" style="endArrow=classic;html=1;entryX=0.25;entryY=0;entryDx=0;entryDy=0;comic=0;" edge="1" parent="0eTv8yT3EtTSWalVSXlZ-61" target="0eTv8yT3EtTSWalVSXlZ-64">
          <mxGeometry width="50" height="50" relative="1" as="geometry">
            <mxPoint x="500" as="sourcePoint" />
            <mxPoint x="80" y="100" as="targetPoint" />
          </mxGeometry>
        </mxCell>
        <mxCell id="0eTv8yT3EtTSWalVSXlZ-86" value="" style="group" vertex="1" connectable="0" parent="1">
          <mxGeometry x="40" y="360" width="680" height="80" as="geometry" />
        </mxCell>
        <mxCell id="0eTv8yT3EtTSWalVSXlZ-87" value="" style="rounded=0;whiteSpace=wrap;html=1;comic=0;" vertex="1" parent="0eTv8yT3EtTSWalVSXlZ-86">
          <mxGeometry x="600" y="40" width="80" height="40" as="geometry" />
        </mxCell>
        <mxCell id="0eTv8yT3EtTSWalVSXlZ-88" value="" style="endArrow=none;html=1;exitX=0.5;exitY=1;exitDx=0;exitDy=0;entryX=0.5;entryY=0;entryDx=0;entryDy=0;comic=0;" edge="1" parent="0eTv8yT3EtTSWalVSXlZ-86" source="0eTv8yT3EtTSWalVSXlZ-87" target="0eTv8yT3EtTSWalVSXlZ-87">
          <mxGeometry width="50" height="50" relative="1" as="geometry">
            <mxPoint x="10" y="50" as="sourcePoint" />
            <mxPoint x="60" as="targetPoint" />
          </mxGeometry>
        </mxCell>
        <mxCell id="0eTv8yT3EtTSWalVSXlZ-89" value="" style="rounded=0;whiteSpace=wrap;html=1;comic=0;" vertex="1" parent="0eTv8yT3EtTSWalVSXlZ-86">
          <mxGeometry x="480" y="40" width="80" height="40" as="geometry" />
        </mxCell>
        <mxCell id="0eTv8yT3EtTSWalVSXlZ-90" value="" style="endArrow=none;html=1;exitX=0.5;exitY=1;exitDx=0;exitDy=0;entryX=0.5;entryY=0;entryDx=0;entryDy=0;comic=0;" edge="1" parent="0eTv8yT3EtTSWalVSXlZ-86" source="0eTv8yT3EtTSWalVSXlZ-89" target="0eTv8yT3EtTSWalVSXlZ-89">
          <mxGeometry width="50" height="50" relative="1" as="geometry">
            <mxPoint x="20" y="60" as="sourcePoint" />
            <mxPoint x="70" y="10" as="targetPoint" />
          </mxGeometry>
        </mxCell>
        <mxCell id="0eTv8yT3EtTSWalVSXlZ-91" value="" style="rounded=0;whiteSpace=wrap;html=1;comic=0;" vertex="1" parent="0eTv8yT3EtTSWalVSXlZ-86">
          <mxGeometry x="360" y="40" width="80" height="40" as="geometry" />
        </mxCell>
        <mxCell id="0eTv8yT3EtTSWalVSXlZ-92" value="" style="endArrow=none;html=1;exitX=0.5;exitY=1;exitDx=0;exitDy=0;entryX=0.5;entryY=0;entryDx=0;entryDy=0;comic=0;" edge="1" parent="0eTv8yT3EtTSWalVSXlZ-86" source="0eTv8yT3EtTSWalVSXlZ-91" target="0eTv8yT3EtTSWalVSXlZ-91">
          <mxGeometry width="50" height="50" relative="1" as="geometry">
            <mxPoint x="30" y="70" as="sourcePoint" />
            <mxPoint x="80" y="20" as="targetPoint" />
          </mxGeometry>
        </mxCell>
        <mxCell id="0eTv8yT3EtTSWalVSXlZ-93" value="" style="rounded=0;whiteSpace=wrap;html=1;comic=0;" vertex="1" parent="0eTv8yT3EtTSWalVSXlZ-86">
          <mxGeometry y="40" width="80" height="40" as="geometry" />
        </mxCell>
        <mxCell id="0eTv8yT3EtTSWalVSXlZ-94" value="" style="endArrow=none;html=1;exitX=0.5;exitY=1;exitDx=0;exitDy=0;entryX=0.5;entryY=0;entryDx=0;entryDy=0;comic=0;" edge="1" parent="0eTv8yT3EtTSWalVSXlZ-86" source="0eTv8yT3EtTSWalVSXlZ-93" target="0eTv8yT3EtTSWalVSXlZ-93">
          <mxGeometry width="50" height="50" relative="1" as="geometry">
            <mxPoint x="40" y="80" as="sourcePoint" />
            <mxPoint x="90" y="30" as="targetPoint" />
          </mxGeometry>
        </mxCell>
        <mxCell id="0eTv8yT3EtTSWalVSXlZ-95" value="" style="rounded=0;whiteSpace=wrap;html=1;comic=0;" vertex="1" parent="0eTv8yT3EtTSWalVSXlZ-86">
          <mxGeometry x="240" y="40" width="80" height="40" as="geometry" />
        </mxCell>
        <mxCell id="0eTv8yT3EtTSWalVSXlZ-96" value="" style="endArrow=none;html=1;exitX=0.5;exitY=1;exitDx=0;exitDy=0;entryX=0.5;entryY=0;entryDx=0;entryDy=0;comic=0;" edge="1" parent="0eTv8yT3EtTSWalVSXlZ-86" source="0eTv8yT3EtTSWalVSXlZ-95" target="0eTv8yT3EtTSWalVSXlZ-95">
          <mxGeometry width="50" height="50" relative="1" as="geometry">
            <mxPoint x="50" y="90" as="sourcePoint" />
            <mxPoint x="100" y="40" as="targetPoint" />
          </mxGeometry>
        </mxCell>
        <mxCell id="0eTv8yT3EtTSWalVSXlZ-97" value="" style="rounded=0;whiteSpace=wrap;html=1;comic=0;" vertex="1" parent="0eTv8yT3EtTSWalVSXlZ-86">
          <mxGeometry x="120" y="40" width="80" height="40" as="geometry" />
        </mxCell>
        <mxCell id="0eTv8yT3EtTSWalVSXlZ-98" value="" style="endArrow=none;html=1;exitX=0.5;exitY=1;exitDx=0;exitDy=0;entryX=0.5;entryY=0;entryDx=0;entryDy=0;comic=0;" edge="1" parent="0eTv8yT3EtTSWalVSXlZ-86" source="0eTv8yT3EtTSWalVSXlZ-97" target="0eTv8yT3EtTSWalVSXlZ-97">
          <mxGeometry width="50" height="50" relative="1" as="geometry">
            <mxPoint x="60" y="100" as="sourcePoint" />
            <mxPoint x="110" y="50" as="targetPoint" />
          </mxGeometry>
        </mxCell>
        <mxCell id="0eTv8yT3EtTSWalVSXlZ-99" value="" style="endArrow=classic;html=1;comic=0;" edge="1" parent="0eTv8yT3EtTSWalVSXlZ-86">
          <mxGeometry width="50" height="50" relative="1" as="geometry">
            <mxPoint x="60" y="60" as="sourcePoint" />
            <mxPoint x="120" y="60" as="targetPoint" />
          </mxGeometry>
        </mxCell>
        <mxCell id="0eTv8yT3EtTSWalVSXlZ-100" value="" style="endArrow=classic;html=1;comic=0;" edge="1" parent="0eTv8yT3EtTSWalVSXlZ-86">
          <mxGeometry width="50" height="50" relative="1" as="geometry">
            <mxPoint x="180" y="59.5" as="sourcePoint" />
            <mxPoint x="240" y="59.5" as="targetPoint" />
          </mxGeometry>
        </mxCell>
        <mxCell id="0eTv8yT3EtTSWalVSXlZ-101" value="" style="endArrow=classic;html=1;comic=0;" edge="1" parent="0eTv8yT3EtTSWalVSXlZ-86">
          <mxGeometry width="50" height="50" relative="1" as="geometry">
            <mxPoint x="300" y="59.5" as="sourcePoint" />
            <mxPoint x="360" y="59.5" as="targetPoint" />
          </mxGeometry>
        </mxCell>
        <mxCell id="0eTv8yT3EtTSWalVSXlZ-102" value="" style="endArrow=classic;html=1;comic=0;" edge="1" parent="0eTv8yT3EtTSWalVSXlZ-86">
          <mxGeometry width="50" height="50" relative="1" as="geometry">
            <mxPoint x="420" y="59.5" as="sourcePoint" />
            <mxPoint x="480" y="59.5" as="targetPoint" />
          </mxGeometry>
        </mxCell>
        <mxCell id="0eTv8yT3EtTSWalVSXlZ-103" value="" style="endArrow=classic;html=1;comic=0;" edge="1" parent="0eTv8yT3EtTSWalVSXlZ-86">
          <mxGeometry width="50" height="50" relative="1" as="geometry">
            <mxPoint x="540" y="59.5" as="sourcePoint" />
            <mxPoint x="600" y="59.5" as="targetPoint" />
          </mxGeometry>
        </mxCell>
        <mxCell id="0eTv8yT3EtTSWalVSXlZ-104" value="" style="endArrow=classic;html=1;entryX=0.25;entryY=0;entryDx=0;entryDy=0;comic=0;" edge="1" parent="0eTv8yT3EtTSWalVSXlZ-86" target="0eTv8yT3EtTSWalVSXlZ-93">
          <mxGeometry width="50" height="50" relative="1" as="geometry">
            <mxPoint x="20" as="sourcePoint" />
            <mxPoint x="400" y="240" as="targetPoint" />
          </mxGeometry>
        </mxCell>
        <mxCell id="0eTv8yT3EtTSWalVSXlZ-105" value="" style="endArrow=classic;html=1;entryX=0.25;entryY=0;entryDx=0;entryDy=0;comic=0;" edge="1" parent="0eTv8yT3EtTSWalVSXlZ-86">
          <mxGeometry width="50" height="50" relative="1" as="geometry">
            <mxPoint x="20" as="sourcePoint" />
            <mxPoint x="20" y="40" as="targetPoint" />
          </mxGeometry>
        </mxCell>
        <mxCell id="0eTv8yT3EtTSWalVSXlZ-106" value="" style="endArrow=classic;html=1;entryX=0.25;entryY=0;entryDx=0;entryDy=0;comic=0;" edge="1" parent="0eTv8yT3EtTSWalVSXlZ-86">
          <mxGeometry width="50" height="50" relative="1" as="geometry">
            <mxPoint x="140" as="sourcePoint" />
            <mxPoint x="140" y="40" as="targetPoint" />
          </mxGeometry>
        </mxCell>
        <mxCell id="0eTv8yT3EtTSWalVSXlZ-107" value="" style="endArrow=classic;html=1;entryX=0.25;entryY=0;entryDx=0;entryDy=0;comic=0;" edge="1" parent="0eTv8yT3EtTSWalVSXlZ-86">
          <mxGeometry width="50" height="50" relative="1" as="geometry">
            <mxPoint x="260" as="sourcePoint" />
            <mxPoint x="260" y="40" as="targetPoint" />
          </mxGeometry>
        </mxCell>
        <mxCell id="0eTv8yT3EtTSWalVSXlZ-108" value="" style="endArrow=classic;html=1;entryX=0.25;entryY=0;entryDx=0;entryDy=0;comic=0;" edge="1" parent="0eTv8yT3EtTSWalVSXlZ-86">
          <mxGeometry width="50" height="50" relative="1" as="geometry">
            <mxPoint x="380" as="sourcePoint" />
            <mxPoint x="380" y="40" as="targetPoint" />
          </mxGeometry>
        </mxCell>
        <mxCell id="0eTv8yT3EtTSWalVSXlZ-109" value="" style="endArrow=classic;html=1;entryX=0.25;entryY=0;entryDx=0;entryDy=0;comic=0;" edge="1" parent="0eTv8yT3EtTSWalVSXlZ-86" target="0eTv8yT3EtTSWalVSXlZ-87">
          <mxGeometry width="50" height="50" relative="1" as="geometry">
            <mxPoint x="620" as="sourcePoint" />
            <mxPoint x="70" y="90" as="targetPoint" />
          </mxGeometry>
        </mxCell>
        <mxCell id="0eTv8yT3EtTSWalVSXlZ-110" value="" style="endArrow=classic;html=1;entryX=0.25;entryY=0;entryDx=0;entryDy=0;comic=0;" edge="1" parent="0eTv8yT3EtTSWalVSXlZ-86" target="0eTv8yT3EtTSWalVSXlZ-89">
          <mxGeometry width="50" height="50" relative="1" as="geometry">
            <mxPoint x="500" as="sourcePoint" />
            <mxPoint x="80" y="100" as="targetPoint" />
          </mxGeometry>
        </mxCell>
        <mxCell id="0eTv8yT3EtTSWalVSXlZ-111" value="" style="group" vertex="1" connectable="0" parent="1">
          <mxGeometry x="40" y="200" width="680" height="80" as="geometry" />
        </mxCell>
        <mxCell id="0eTv8yT3EtTSWalVSXlZ-112" value="" style="rounded=0;whiteSpace=wrap;html=1;comic=0;" vertex="1" parent="0eTv8yT3EtTSWalVSXlZ-111">
          <mxGeometry x="600" y="40" width="80" height="40" as="geometry" />
        </mxCell>
        <mxCell id="0eTv8yT3EtTSWalVSXlZ-113" value="" style="endArrow=none;html=1;exitX=0.5;exitY=1;exitDx=0;exitDy=0;entryX=0.5;entryY=0;entryDx=0;entryDy=0;comic=0;" edge="1" parent="0eTv8yT3EtTSWalVSXlZ-111" source="0eTv8yT3EtTSWalVSXlZ-112" target="0eTv8yT3EtTSWalVSXlZ-112">
          <mxGeometry width="50" height="50" relative="1" as="geometry">
            <mxPoint x="10" y="50" as="sourcePoint" />
            <mxPoint x="60" as="targetPoint" />
          </mxGeometry>
        </mxCell>
        <mxCell id="0eTv8yT3EtTSWalVSXlZ-114" value="" style="rounded=0;whiteSpace=wrap;html=1;comic=0;" vertex="1" parent="0eTv8yT3EtTSWalVSXlZ-111">
          <mxGeometry x="480" y="40" width="80" height="40" as="geometry" />
        </mxCell>
        <mxCell id="0eTv8yT3EtTSWalVSXlZ-115" value="" style="endArrow=none;html=1;exitX=0.5;exitY=1;exitDx=0;exitDy=0;entryX=0.5;entryY=0;entryDx=0;entryDy=0;comic=0;" edge="1" parent="0eTv8yT3EtTSWalVSXlZ-111" source="0eTv8yT3EtTSWalVSXlZ-114" target="0eTv8yT3EtTSWalVSXlZ-114">
          <mxGeometry width="50" height="50" relative="1" as="geometry">
            <mxPoint x="20" y="60" as="sourcePoint" />
            <mxPoint x="70" y="10" as="targetPoint" />
          </mxGeometry>
        </mxCell>
        <mxCell id="0eTv8yT3EtTSWalVSXlZ-116" value="" style="rounded=0;whiteSpace=wrap;html=1;comic=0;" vertex="1" parent="0eTv8yT3EtTSWalVSXlZ-111">
          <mxGeometry x="360" y="40" width="80" height="40" as="geometry" />
        </mxCell>
        <mxCell id="0eTv8yT3EtTSWalVSXlZ-117" value="" style="endArrow=none;html=1;exitX=0.5;exitY=1;exitDx=0;exitDy=0;entryX=0.5;entryY=0;entryDx=0;entryDy=0;comic=0;" edge="1" parent="0eTv8yT3EtTSWalVSXlZ-111" source="0eTv8yT3EtTSWalVSXlZ-116" target="0eTv8yT3EtTSWalVSXlZ-116">
          <mxGeometry width="50" height="50" relative="1" as="geometry">
            <mxPoint x="30" y="70" as="sourcePoint" />
            <mxPoint x="80" y="20" as="targetPoint" />
          </mxGeometry>
        </mxCell>
        <mxCell id="0eTv8yT3EtTSWalVSXlZ-118" value="" style="rounded=0;whiteSpace=wrap;html=1;comic=0;" vertex="1" parent="0eTv8yT3EtTSWalVSXlZ-111">
          <mxGeometry y="40" width="80" height="40" as="geometry" />
        </mxCell>
        <mxCell id="0eTv8yT3EtTSWalVSXlZ-119" value="" style="endArrow=none;html=1;exitX=0.5;exitY=1;exitDx=0;exitDy=0;entryX=0.5;entryY=0;entryDx=0;entryDy=0;comic=0;" edge="1" parent="0eTv8yT3EtTSWalVSXlZ-111" source="0eTv8yT3EtTSWalVSXlZ-118" target="0eTv8yT3EtTSWalVSXlZ-118">
          <mxGeometry width="50" height="50" relative="1" as="geometry">
            <mxPoint x="40" y="80" as="sourcePoint" />
            <mxPoint x="90" y="30" as="targetPoint" />
          </mxGeometry>
        </mxCell>
        <mxCell id="0eTv8yT3EtTSWalVSXlZ-120" value="" style="rounded=0;whiteSpace=wrap;html=1;comic=0;" vertex="1" parent="0eTv8yT3EtTSWalVSXlZ-111">
          <mxGeometry x="240" y="40" width="80" height="40" as="geometry" />
        </mxCell>
        <mxCell id="0eTv8yT3EtTSWalVSXlZ-121" value="" style="endArrow=none;html=1;exitX=0.5;exitY=1;exitDx=0;exitDy=0;entryX=0.5;entryY=0;entryDx=0;entryDy=0;comic=0;" edge="1" parent="0eTv8yT3EtTSWalVSXlZ-111" source="0eTv8yT3EtTSWalVSXlZ-120" target="0eTv8yT3EtTSWalVSXlZ-120">
          <mxGeometry width="50" height="50" relative="1" as="geometry">
            <mxPoint x="50" y="90" as="sourcePoint" />
            <mxPoint x="100" y="40" as="targetPoint" />
          </mxGeometry>
        </mxCell>
        <mxCell id="0eTv8yT3EtTSWalVSXlZ-122" value="" style="rounded=0;whiteSpace=wrap;html=1;comic=0;" vertex="1" parent="0eTv8yT3EtTSWalVSXlZ-111">
          <mxGeometry x="120" y="40" width="80" height="40" as="geometry" />
        </mxCell>
        <mxCell id="0eTv8yT3EtTSWalVSXlZ-123" value="" style="endArrow=none;html=1;exitX=0.5;exitY=1;exitDx=0;exitDy=0;entryX=0.5;entryY=0;entryDx=0;entryDy=0;comic=0;" edge="1" parent="0eTv8yT3EtTSWalVSXlZ-111" source="0eTv8yT3EtTSWalVSXlZ-122" target="0eTv8yT3EtTSWalVSXlZ-122">
          <mxGeometry width="50" height="50" relative="1" as="geometry">
            <mxPoint x="60" y="100" as="sourcePoint" />
            <mxPoint x="110" y="50" as="targetPoint" />
          </mxGeometry>
        </mxCell>
        <mxCell id="0eTv8yT3EtTSWalVSXlZ-124" value="" style="endArrow=classic;html=1;comic=0;" edge="1" parent="0eTv8yT3EtTSWalVSXlZ-111">
          <mxGeometry width="50" height="50" relative="1" as="geometry">
            <mxPoint x="60" y="60" as="sourcePoint" />
            <mxPoint x="120" y="60" as="targetPoint" />
          </mxGeometry>
        </mxCell>
        <mxCell id="0eTv8yT3EtTSWalVSXlZ-125" value="" style="endArrow=classic;html=1;comic=0;" edge="1" parent="0eTv8yT3EtTSWalVSXlZ-111">
          <mxGeometry width="50" height="50" relative="1" as="geometry">
            <mxPoint x="180" y="59.5" as="sourcePoint" />
            <mxPoint x="240" y="59.5" as="targetPoint" />
          </mxGeometry>
        </mxCell>
        <mxCell id="0eTv8yT3EtTSWalVSXlZ-126" value="" style="endArrow=classic;html=1;comic=0;" edge="1" parent="0eTv8yT3EtTSWalVSXlZ-111">
          <mxGeometry width="50" height="50" relative="1" as="geometry">
            <mxPoint x="300" y="59.5" as="sourcePoint" />
            <mxPoint x="360" y="59.5" as="targetPoint" />
          </mxGeometry>
        </mxCell>
        <mxCell id="0eTv8yT3EtTSWalVSXlZ-127" value="" style="endArrow=classic;html=1;comic=0;" edge="1" parent="0eTv8yT3EtTSWalVSXlZ-111">
          <mxGeometry width="50" height="50" relative="1" as="geometry">
            <mxPoint x="420" y="59.5" as="sourcePoint" />
            <mxPoint x="480" y="59.5" as="targetPoint" />
          </mxGeometry>
        </mxCell>
        <mxCell id="0eTv8yT3EtTSWalVSXlZ-128" value="" style="endArrow=classic;html=1;comic=0;" edge="1" parent="0eTv8yT3EtTSWalVSXlZ-111">
          <mxGeometry width="50" height="50" relative="1" as="geometry">
            <mxPoint x="540" y="59.5" as="sourcePoint" />
            <mxPoint x="600" y="59.5" as="targetPoint" />
          </mxGeometry>
        </mxCell>
        <mxCell id="0eTv8yT3EtTSWalVSXlZ-129" value="" style="endArrow=classic;html=1;entryX=0.25;entryY=0;entryDx=0;entryDy=0;comic=0;" edge="1" parent="0eTv8yT3EtTSWalVSXlZ-111" target="0eTv8yT3EtTSWalVSXlZ-118">
          <mxGeometry width="50" height="50" relative="1" as="geometry">
            <mxPoint x="20" as="sourcePoint" />
            <mxPoint x="400" y="240" as="targetPoint" />
          </mxGeometry>
        </mxCell>
        <mxCell id="0eTv8yT3EtTSWalVSXlZ-130" value="" style="endArrow=classic;html=1;entryX=0.25;entryY=0;entryDx=0;entryDy=0;comic=0;" edge="1" parent="0eTv8yT3EtTSWalVSXlZ-111">
          <mxGeometry width="50" height="50" relative="1" as="geometry">
            <mxPoint x="20" as="sourcePoint" />
            <mxPoint x="20" y="40" as="targetPoint" />
          </mxGeometry>
        </mxCell>
        <mxCell id="0eTv8yT3EtTSWalVSXlZ-131" value="" style="endArrow=classic;html=1;entryX=0.25;entryY=0;entryDx=0;entryDy=0;comic=0;" edge="1" parent="0eTv8yT3EtTSWalVSXlZ-111">
          <mxGeometry width="50" height="50" relative="1" as="geometry">
            <mxPoint x="140" as="sourcePoint" />
            <mxPoint x="140" y="40" as="targetPoint" />
          </mxGeometry>
        </mxCell>
        <mxCell id="0eTv8yT3EtTSWalVSXlZ-132" value="" style="endArrow=classic;html=1;entryX=0.25;entryY=0;entryDx=0;entryDy=0;comic=0;" edge="1" parent="0eTv8yT3EtTSWalVSXlZ-111">
          <mxGeometry width="50" height="50" relative="1" as="geometry">
            <mxPoint x="260" as="sourcePoint" />
            <mxPoint x="260" y="40" as="targetPoint" />
          </mxGeometry>
        </mxCell>
        <mxCell id="0eTv8yT3EtTSWalVSXlZ-133" value="" style="endArrow=classic;html=1;entryX=0.25;entryY=0;entryDx=0;entryDy=0;comic=0;" edge="1" parent="0eTv8yT3EtTSWalVSXlZ-111">
          <mxGeometry width="50" height="50" relative="1" as="geometry">
            <mxPoint x="380" as="sourcePoint" />
            <mxPoint x="380" y="40" as="targetPoint" />
          </mxGeometry>
        </mxCell>
        <mxCell id="0eTv8yT3EtTSWalVSXlZ-134" value="" style="endArrow=classic;html=1;entryX=0.25;entryY=0;entryDx=0;entryDy=0;comic=0;" edge="1" parent="0eTv8yT3EtTSWalVSXlZ-111" target="0eTv8yT3EtTSWalVSXlZ-112">
          <mxGeometry width="50" height="50" relative="1" as="geometry">
            <mxPoint x="620" as="sourcePoint" />
            <mxPoint x="70" y="90" as="targetPoint" />
          </mxGeometry>
        </mxCell>
        <mxCell id="0eTv8yT3EtTSWalVSXlZ-135" value="" style="endArrow=classic;html=1;entryX=0.25;entryY=0;entryDx=0;entryDy=0;comic=0;" edge="1" parent="0eTv8yT3EtTSWalVSXlZ-111" target="0eTv8yT3EtTSWalVSXlZ-114">
          <mxGeometry width="50" height="50" relative="1" as="geometry">
            <mxPoint x="500" as="sourcePoint" />
            <mxPoint x="80" y="100" as="targetPoint" />
          </mxGeometry>
        </mxCell>
      </root>
    </mxGraphModel>
  </diagram>
</mxfile>
